{"title":"Under.Sandet.2015.DANiSH.REPACK.1080p.WEB-DL.DD5.1.H.264-ROLLiT","uid":15136797,"size":3561829266,"categoryP":"video","categoryS":"movies","magnet":"?xt=urn:btih:edc415af0bf3bf87149c3430acb49715b6ae31c4&amp;dn=Under.Sandet.2015.DANiSH.REPACK.1080p.WEB-DL.DD5.1.H.264-ROLLiT&amp;tr=udp%3A%2F%2Ftracker.leechers-paradise.org%3A6969&amp;tr=udp%3A%2F%2Fzer0day.ch%3A1337&amp;tr=udp%3A%2F%2Fopen.demonii.com%3A1337&amp;tr=udp%3A%2F%2Ftracker.coppersurfer.tk%3A6969&amp;tr=udp%3A%2F%2Fexodus.desync.com%3A6969","seeders":7,"leechers":0,"uploader":"noriegaRJ","files":4,"time":1467179634,"description":"Title: Under Sandet aka Land of Mine\r\n\r\nRelease: Under.Sandet.2015.DANiSH.REPACK.1080p.WEB-DL.DD5.1.H.264-ROLLiT\r\n\r\n\r\nIMDB Link:                                                                   \nhttp://www.imdb.com/title/tt3841424/\r\n\r\n\r\nPlot: A young group of German POWs are made the enemy of a nation, where they are now forced to dig up 2 million land-mines with their bare hands.\r\n\r\n\r\nDANISH SUBTITLE INSIDE MKV FILE.\r\n\r\n\r\nGeneral\r\nComplete name                            : Under.Sandet.2015.DANiSH.1080p.WEB-DL.DD5.1.H.264-ROLLiT\r\nFormat                                   : Matroska\r\nFormat version                           : Version 4 / Version 2\r\nFile size                                : 3.32 GiB\r\nDuration                                 : 1h 36mn\r\nOverall bit rate                         : 4 910 Kbps\r\nEncoded date                             : UTC 2016-04-04 09:06:57\r\nWriting application                      : mkvmerge v8.5.0 ('Vanishing Act') 64bit\r\nWriting library                          : libebml v1.3.1 + libmatroska v1.4.2\r\nDURATION                                 : 01:28:51.520000000\r\nNUMBER_OF_FRAMES                         : 684\r\nNUMBER_OF_BYTES                          : 23649\r\n_STATISTICS_WRITING_APP                  : mkvmerge v8.5.0 ('Vanishing Act') 64bit\r\n_STATISTICS_WRITING_DATE_UTC             : 2016-04-04 09:06:57\r\n_STATISTICS_TAGS                         : BPS DURATION NUMBER_OF_FRAMES NUMBER_OF_BYTES\r\n\r\nVideo\r\nID                                       : 2\r\nFormat                                   : AVC\r\nFormat/Info                              : Advanced Video Codec\r\nFormat profile                           :   \r\nFormat settings, CABAC                   : Yes\r\nFormat settings, ReFrames                : 5 frames\r\nCodec ID                                 : V_MPEG4/ISO/AVC\r\nDuration                                 : 1h 36mn\r\nBit rate                                 : 4 428 Kbps\r\nWidth                                    : 1 916 pixels\r\nHeight                                   : 800 pixels\r\nDisplay aspect ratio                     : 2.40:1\r\nFrame rate mode                          : Constant\r\nFrame rate                               : 25.000 fps\r\nColor space                              : YUV\r\nChroma subsampling                       : 4:2:0\r\nBit depth                                : 8 bits\r\nScan type                                : Progressive\r\nBits/(Pixel*Frame)                       : 0.116\r\nStream size                              : 2.99 GiB (90%)\r\nLanguage                                 : English\r\nDefault                                  : Yes\r\nForced                                   : No\r\nColor primaries                          : BT.709\r\nTransfer characteristics                 : BT.709\r\nMatrix coefficients                      : BT.709\r\n\r\nAudio\r\nID                                       : 1\r\nFormat                                   : AC-3\r\nFormat/Info                              : Audio Coding 3\r\nMode extension                           : CM (complete main)\r\nFormat settings, Endianness              : Big\r\nCodec ID                                 : A_AC3\r\nDuration                                 : 1h 36mn\r\nBit rate mode                            : Constant\r\nBit rate                                 : 384 Kbps\r\nChannel count                            : 6 channels\r\nChannel positions                        : Front: L C R, Side: L R, LFE\r\nSampling rate                            : 48.0 KHz\r\nBit depth                                : 16 bits\r\nCompression mode                         : Lossy\r\nStream size                              : 266 MiB (8%)\r\nLanguage                                 : Danish\r\nDefault                                  : Yes\r\nForced                                   : No\r\n\r\nText\r\nID                                       : 3\r\nFormat                                   : UTF-8\r\nCodec ID                                 : S_TEXT/UTF8\r\nCodec ID/Info                            : UTF-8 Plain Text\r\nTitle                                    : ROLLiT @ www.DanishBits.org\r\nLanguage                                 : Danish\r\nDefault                                  : Yes\r\nForced                                   : No\r\n\r\n\r\n\r\n\r\nThanks to those helping me seed. Leechers remember, the community depends on you. If nobody shares, the freebies go away. Remember, the only reason you can download this free movie is because others are generous enough to keep sharing it with you. If nobody shares, everybody loses, so even if its for an extra hour or two after you get it, remember, others want to see it too, and they can't without you.\r\n\r\n\r\nSEE MY OTHERS UPLOADS:                                                                                           \nhttp://thepiratebay.se/user/noriegaRJ\r\n\r\nAND SEE THIS ANOTHERS UPLOADS FROM &quot;HORiZON-ArtSubs&quot;:                                           \nhttp://thepiratebay.se/user/artsubs                                           \nhttp://thepiratebay.se/user/lletaif","torrent":{"xt":"urn:btih:edc415af0bf3bf87149c3430acb49715b6ae31c4","amp;dn":"Under.Sandet.2015.DANiSH.REPACK.1080p.WEB-DL.DD5.1.H.264-ROLLiT","amp;tr":["udp%3A%2F%2Ftracker.leechers-paradise.org%3A6969","udp%3A%2F%2Fzer0day.ch%3A1337","udp%3A%2F%2Fopen.demonii.com%3A1337","udp%3A%2F%2Ftracker.coppersurfer.tk%3A6969","udp%3A%2F%2Fexodus.desync.com%3A6969"],"infoHash":"edc415af0bf3bf87149c3430acb49715b6ae31c4","infoHashBuffer":{"type":"Buffer","data":[237,196,21,175,11,243,191,135,20,156,52,48,172,180,151,21,182,174,49,196]},"announce":[],"urlList":[]}}